<svg width="100" height="340" version="1.1" viewBox="0 0 26.458 89.958" xmlns="http://www.w3.org/2000/svg" xmlns:xlink="http://www.w3.org/1999/xlink">
 <defs>
  <linearGradient id="linearGradient825" x2="52.917" y1="297" y2="164.71" gradientTransform="matrix(.5 0 0 .68 0 -112)" gradientUnits="userSpaceOnUse">
   <stop stop-color="#ffa016" offset="0"/>
   <stop stop-color="#6fff5e" offset="1"/>
  </linearGradient>
  <linearGradient id="linearGradient2134" x1="76.484" x2="-6.4059" y1="13.683" y2="97.05" gradientUnits="userSpaceOnUse">
   <stop stop-color="#fff" offset="0"/>
   <stop stop-color="#fff" stop-opacity="0" offset="1"/>
  </linearGradient>
 </defs>
 <rect y="-6.7139e-6" width="26.458" height="89.958" ry="0" fill="url(#linearGradient825)" opacity=".88"/>
 <path transform="matrix(.26458 0 0 .26458 -.00011765 0)" d="m54.852 11.594-8.1016 0.003906c-2.8835-0.002609-4.9087 1.5026-6.084 4.459l-33.109 85.27c-0.36137 0.80644-0.53357 1.4425-0.5332 1.8926 4.857e-4 0.81263 0.26372 1.5356 0.80273 2.1602 0.63098 0.54049 1.3556 0.81395 2.166 0.8125h5c2.7029 9.6e-4 4.4675-1.1035 5.2715-3.3789l7.0273-17.973h46.887l7.0273 17.973c0.80989 2.2525 2.5689 3.3771 5.2715 3.377h5.002c0.81127 0.00145 1.4796-0.30132 2.0312-0.79297 0.63098-0.63174 0.94335-1.3544 0.94336-2.1641-3.55e-4 -0.4563-0.17958-1.0798-0.54102-1.8926l-32.977-85.287c-1.1711-2.9729-3.2012-4.4593-6.084-4.459zm40.848 6.9922-2.543 0.011718c-0.50229 0.009562-0.94349 0.15989-1.3086 0.53906-0.35645 0.4081-0.5552 0.807-0.55469 1.3164l0.003906 13.502h-13.492c-0.50229 0.009562-0.94369 0.15955-1.3027 0.56836-0.35645 0.4081-0.54836 0.80323-0.54883 1.3066v2.1289c0.001168 0.5061 0.18056 0.94435 0.54492 1.3125 0.36726 0.36733 0.8024 0.54965 1.3086 0.55469h13.492v13.697c0.001168 0.5061 0.18821 0.9461 0.55469 1.3105 0.36726 0.36733 0.80239 0.5477 1.3086 0.55274l2.5469 0.001953c0.50229-0.009449 0.94261-0.15785 1.3008-0.56641 0.35645-0.4081 0.5552-0.80896 0.55469-1.3184v-13.697h2.4355v-5.875h-2.4395v-13.488c-0.001176-0.5061-0.18821-0.9461-0.55469-1.3105-0.36727-0.36736-0.80122-0.54476-1.3066-0.54687zm-44.898 5.8516 18.648 48.24h-37.434l18.785-48.24z" fill="url(#linearGradient2134)" opacity=".63519" stroke-width="3.3783"/>
</svg>
