<svg width="32" height="32" version="1.1" viewBox="0 0 8.4667 8.4667" xmlns="http://www.w3.org/2000/svg" xmlns:xlink="http://www.w3.org/1999/xlink">
 <defs>
  <linearGradient id="linearGradient822-63" x1="4.6863" x2="27.314" y1="35.596" y2="-3.5959" gradientTransform="matrix(.26458 0 0 .26458 75.629 277.46)" gradientUnits="userSpaceOnUse">
   <stop stop-color="#949494" offset="0"/>
   <stop stop-color="#e1e4e5" offset="1"/>
  </linearGradient>
 </defs>
 <g transform="translate(0 -288.53)">
  <circle transform="rotate(15)" cx="79.863" cy="281.69" r="4.2333" fill="url(#linearGradient822-63)" style="paint-order:normal"/>
  <path d="m4.5073 291.74c-0.56633-0.15174-1.1444 0.18203-1.2962 0.74835l-1.0594 3.9538a4.2333 4.2333 0 0 0 0.98603 0.40916 4.2333 4.2333 0 0 0 5.1848-2.9934 4.2333 4.2333 0 0 0 0.14063-1.058z" style="paint-order:normal"/>
  <path d="m5.424 292.9q0.30779 0.0824 0.51756 0.26556 0.21578 0.17963 0.29727 0.42478 0.087498 0.24166 0.020252 0.49263-0.050752 0.1894-0.15638 0.31843-0.099622 0.12557-0.22224 0.20436-0.11661 0.0754-0.3024 0.16258-0.25056 0.12064-0.38679 0.23132-0.13623 0.11067-0.19079 0.31429l-0.017762 0.0664q-0.013958 0.0521-0.061989 0.0798-0.048038 0.0278-0.10012 0.0138l-0.1752-0.0469q-0.052087-0.014-0.079812-0.062t-0.013774-0.10013l0.026645-0.0995q0.050752-0.18941 0.15511-0.3137 0.10563-0.12903 0.22224-0.20436 0.12135-0.0741 0.31567-0.17425 0.24455-0.11718 0.37351-0.21965 0.13496-0.10596 0.18318-0.28588 0.060901-0.22728-0.092979-0.41062-0.15388-0.18334-0.41905-0.25438-0.2557-0.0686-0.46042 0.0136-0.20472 0.0822-0.34207 0.32957-0.02216 0.0448-0.067654 0.0631-0.040755 0.0195-0.083372 8e-3l-0.20361-0.0545q-0.042617-0.0114-0.068154-0.0487-0.024258-0.0421-0.00811-0.0834 0.073838-0.21874 0.25405-0.39883 0.18494-0.17883 0.46323-0.25144 0.28302-0.0713 0.62396 0.02zm-0.61088 3.3026q-0.013957 0.0521-0.061989 0.0799-0.048038 0.0277-0.10013 0.0139l-0.26991-0.0723q-0.052087-0.014-0.079812-0.062t-0.013774-0.10013l0.07232-0.26992q0.013958-0.0521 0.061989-0.0798 0.048038-0.0278 0.10012-0.0139l0.2699 0.0723q0.052087 0.014 0.079812 0.062t0.013774 0.10013z" fill="#fff" stroke-width=".12256"/>
 </g>
</svg>
