<svg width="100" height="340" version="1.1" viewBox="0 0 26.458 89.958" xmlns="http://www.w3.org/2000/svg" xmlns:xlink="http://www.w3.org/1999/xlink">
 <defs>
  <linearGradient id="linearGradient825" x2="52.917" y1="297" y2="164.71" gradientTransform="matrix(.5 0 0 .68 0 95.04)" gradientUnits="userSpaceOnUse">
   <stop stop-color="#939393" offset="0"/>
   <stop stop-color="#cdcdcd" offset="1"/>
  </linearGradient>
 </defs>
 <g transform="translate(0 -207.04)">
  <rect y="207.04" width="26.458" height="89.958" ry="0" fill="url(#linearGradient825)" opacity=".88"/>
  <path transform="matrix(.26458 0 0 .26458 0 207.04)" d="m70.236 21.447c-9.4079 0-17.51 1.9052-24.305 5.7168-6.664 3.8115-11.759 8.6734-15.287 14.588-3.3973 5.9144-5.2916 11.961-5.6836 18.139-0.13067 1.1829 0.26112 2.2343 1.1758 3.1543 0.91466 0.78861 1.9607 1.1836 3.1367 1.1836h8.4277c1.176 0 2.2201-0.39498 3.1348-1.1836 1.0453-0.78859 1.6996-1.84 1.9609-3.1543 1.8293-7.3603 5.0949-12.815 9.7988-16.363 4.704-3.5487 10.585-5.3242 17.641-5.3242 7.3173 0 13.59 1.8414 18.816 5.5215 5.2266 3.6801 7.8398 8.6737 7.8398 14.982 0 4.9944-1.3732 9.3316-4.1172 13.012-2.6133 3.5487-6.6624 7.6884-12.15 12.42-4.312 3.943-7.7754 7.2946-10.389 10.055-2.4827 2.7601-4.6394 6.1775-6.4688 10.252-1.8293 3.943-2.7422 9.4362-2.7422 14.693v4.1406c0 1.4458 0.52108 2.6946 1.5664 3.7461 1.0453 1.0514 2.2873 1.5762 3.7246 1.5762h7.252c1.4373 0 2.6793-0.52473 3.7246-1.5762 1.0453-1.0514 1.5684-2.3003 1.5684-3.7461v-2.7598c0-5.6516 1.3713-11.276 4.1152-15.088 2.744-3.8116 6.9243-8.1487 12.543-13.012 1.6369-1.3892 3.1039-2.7004 4.4805-3.9688v-57.959c-2.1302-1.558-4.4721-2.9309-7.0273-4.1172-6.664-3.2858-14.243-4.9277-22.736-4.9277zm-5.8789 118.98c-1.4373 0-2.6793 0.52471-3.7246 1.5762-1.0453 1.0515-1.5684 2.3003-1.5684 3.7461v11.238c0 1.4458 0.52303 2.6927 1.5684 3.7441 1.0453 1.0514 2.2873 1.5781 3.7246 1.5781h11.172c1.4373 0 2.6773-0.52668 3.7227-1.5781 1.0453-1.0515 1.5684-2.2984 1.5684-3.7441v-11.238c0-1.4458-0.52304-2.6946-1.5684-3.7461-1.0453-1.0515-2.2853-1.5762-3.7227-1.5762z" opacity=".28072" stroke-width="4.9143"/>
 </g>
</svg>
