<svg width="32" height="32" version="1.1" viewBox="0 0 8.4667 8.4667" xmlns="http://www.w3.org/2000/svg">
 <defs>
  <linearGradient id="linearGradient822-63" x1="4.6863" x2="27.314" y1="35.596" y2="-3.5959" gradientTransform="matrix(.26458 0 0 .26458 75.629 277.46)" gradientUnits="userSpaceOnUse">
   <stop stop-color="#ffa016" offset="0"/>
   <stop stop-color="#6fff5e" offset="1"/>
  </linearGradient>
 </defs>
 <g transform="translate(0 -288.53)">
  <circle transform="rotate(15)" cx="79.863" cy="281.69" r="4.2333" fill="url(#linearGradient822-63)" style="paint-order:normal"/>
  <path d="m4.5073 291.74c-0.56633-0.15174-1.1444 0.18203-1.2962 0.74835l-1.0594 3.9538a4.2333 4.2333 0 0 0 0.98603 0.40916 4.2333 4.2333 0 0 0 5.1848-2.9934 4.2333 4.2333 0 0 0 0.14063-1.058z" style="paint-order:normal"/>
  <path d="m5.3224 292.67c-0.092221-0.0248-0.16991 6e-3 -0.23285 0.0905l-1.7901 2.444c-0.018473 0.0227-0.029467 0.0416-0.033313 0.056-0.00695 0.026-0.00468 0.0514 0.00721 0.076 0.015552 0.0227 0.036351 0.0376 0.062288 0.0445l0.16 0.0429c0.086458 0.0232 0.15237 3e-3 0.19759-0.0629l0.37886-0.51475 1.4999 0.40191 0.070732 0.6352c0.00662 0.079 0.053249 0.13004 0.13971 0.1532l0.16 0.0429c0.025938 7e-3 0.049894 3e-3 0.071746-8e-3 0.025599-0.0148 0.041778-0.0352 0.048725-0.0611 0.00386-0.0146 0.00349-0.0361-0.0011-0.0652l-0.32385-3.011c-0.011979-0.10514-0.064161-0.17012-0.15638-0.19482zm1.4245 0.62173c-0.016149-4e-3 -0.031539-3e-3 -0.046474 6e-3 -0.014905 0.01-0.024646 0.0211-0.028997 0.0374l-0.11561 0.43194-0.43165-0.11566c-0.016149-4e-3 -0.031539-3e-3 -0.046533 7e-3 -0.014905 0.01-0.024405 0.021-0.028728 0.0371l-0.018273 0.0681c-0.00431 0.0162-0.00234 0.0318 0.00624 0.0467 0.00857 0.0149 0.020934 0.0244 0.037083 0.0289l0.43165 0.11566-0.11741 0.43818c-0.00431 0.0162-0.00212 0.0319 0.00646 0.0467 0.00857 0.0149 0.020934 0.0244 0.037083 0.0289l0.081476 0.0219c0.016149 4e-3 0.031539 3e-3 0.046503-7e-3 0.014903-0.01 0.024646-0.0211 0.028997-0.0374l0.11741-0.43819 0.43377 0.11622c0.016148 4e-3 0.031539 3e-3 0.046503-7e-3 0.014906-0.01 0.024645-0.0211 0.028997-0.0374l0.018273-0.0681c0.00431-0.0162 0.00206-0.0317-0.00652-0.0465-0.00861-0.0148-0.020904-0.0245-0.037054-0.0289l-0.43377-0.11631 0.1156-0.43145c0.00431-0.0162 0.00212-0.0319-0.00646-0.0467-0.00857-0.0149-0.020964-0.0243-0.037114-0.0287zm-1.405-0.17625 0.18301 1.703-1.1974-0.32086z" fill="#fff" stroke-width=".11188"/>
 </g>
</svg>
