<?xml version="1.0" encoding="UTF-8" standalone="no"?>
<svg
   xmlns:dc="http://purl.org/dc/elements/1.1/"
   xmlns:cc="http://creativecommons.org/ns#"
   xmlns:rdf="http://www.w3.org/1999/02/22-rdf-syntax-ns#"
   xmlns:svg="http://www.w3.org/2000/svg"
   xmlns="http://www.w3.org/2000/svg"
   xmlns:sodipodi="http://sodipodi.sourceforge.net/DTD/sodipodi-0.dtd"
   xmlns:inkscape="http://www.inkscape.org/namespaces/inkscape"
   inkscape:version="1.0 (4035a4fb49, 2020-05-01)"
   sodipodi:docname="theGrades.svg"
   id="svg17"
   viewBox="0 0 8.4667 8.4667"
   version="1.1"
   height="32"
   width="32">
  <metadata
     id="metadata21">
    <rdf:RDF>
      <cc:Work
         rdf:about="">
        <dc:format>image/svg+xml</dc:format>
        <dc:type
           rdf:resource="http://purl.org/dc/dcmitype/StillImage" />
        <dc:title></dc:title>
      </cc:Work>
    </rdf:RDF>
  </metadata>
  <sodipodi:namedview
     inkscape:current-layer="g15"
     inkscape:window-maximized="0"
     inkscape:window-y="55"
     inkscape:window-x="306"
     inkscape:cy="11.162044"
     inkscape:cx="13.768786"
     inkscape:zoom="8.9493202"
     showguides="false"
     showgrid="true"
     id="namedview19"
     inkscape:window-height="987"
     inkscape:window-width="1042"
     inkscape:pageshadow="2"
     inkscape:pageopacity="0"
     guidetolerance="10"
     gridtolerance="10"
     objecttolerance="10"
     borderopacity="1"
     bordercolor="#666666"
     pagecolor="#ffffff">
    <inkscape:grid
       spacingy="0.26458437"
       spacingx="0.26458437"
       originy="0"
       originx="0"
       id="grid1489"
       type="xygrid" />
    <inkscape:grid
       empspacing="1"
       dotted="true"
       originy="0.13229219"
       originx="0.13229219"
       id="grid2085"
       type="xygrid" />
  </sodipodi:namedview>
  <defs
     id="defs7">
    <linearGradient
       gradientUnits="userSpaceOnUse"
       gradientTransform="matrix(.26458 0 0 .26458 75.629 277.46)"
       y2="-3.5959"
       y1="35.596"
       x2="27.314"
       x1="4.6863"
       id="linearGradient822-63">
      <stop
         style="stop-color:#ffa016;stop-opacity:1"
         id="stop2"
         offset="0"
         stop-color="#949494" />
      <stop
         style="stop-color:#6fff5e;stop-opacity:1"
         id="stop4"
         offset="1"
         stop-color="#e1e4e5" />
    </linearGradient>
  </defs>
  <g
     id="g15"
     transform="translate(0 -288.53)">
    <circle
       id="circle9"
       style="paint-order:normal"
       fill="url(#linearGradient822-63)"
       r="4.2333"
       cy="281.69"
       cx="79.863"
       transform="rotate(15)" />
    <path
       id="path11"
       style="paint-order:normal"
       d="m4.5073 291.74c-0.56633-0.15174-1.1444 0.18203-1.2962 0.74835l-1.0594 3.9538a4.2333 4.2333 0 0 0 0.98603 0.40916 4.2333 4.2333 0 0 0 5.1848-2.9934 4.2333 4.2333 0 0 0 0.14063-1.058z" />
    <path
       d="m 5.3223975,292.66973 c -0.092221,-0.0248 -0.1699067,0.006 -0.2328458,0.0905 l -1.7900913,2.44395 c -0.018473,0.0227 -0.029467,0.0416 -0.033313,0.056 -0.00695,0.026 -0.00468,0.0514 0.00721,0.076 0.015552,0.0227 0.036351,0.0376 0.062288,0.0445 l 0.1599972,0.0429 c 0.086458,0.0232 0.1523716,0.003 0.1975947,-0.0629 l 0.3788639,-0.51475 1.4999195,0.40191 0.070732,0.6352 c 0.00662,0.079 0.053249,0.13004 0.1397075,0.1532 l 0.1599971,0.0429 c 0.025938,0.007 0.049894,0.003 0.071746,-0.008 0.025599,-0.0148 0.041778,-0.0352 0.048725,-0.0611 0.00386,-0.0146 0.00349,-0.0361 -0.0011,-0.0652 l -0.323848,-3.01099 c -0.011979,-0.10514 -0.064161,-0.17012 -0.156382,-0.19482 z m 1.4245041,0.62173 c -0.016149,-0.004 -0.031539,-0.003 -0.046474,0.006 -0.014905,0.01 -0.024646,0.0211 -0.028997,0.0374 L 6.5558252,293.7668 6.124171,293.65114 c -0.016149,-0.004 -0.031539,-0.003 -0.046533,0.007 -0.014905,0.01 -0.024405,0.021 -0.028728,0.0371 l -0.018273,0.0681 c -0.00431,0.0162 -0.00234,0.0318 0.00624,0.0467 0.00857,0.0149 0.020934,0.0244 0.037083,0.0289 l 0.4316541,0.11566 -0.1174139,0.43818 c -0.00431,0.0162 -0.00212,0.0319 0.00646,0.0467 0.00857,0.0149 0.020934,0.0244 0.037083,0.0289 l 0.081476,0.0219 c 0.016149,0.004 0.031539,0.003 0.046503,-0.007 0.014903,-0.01 0.024646,-0.0211 0.028997,-0.0374 l 0.1174139,-0.43819 0.4337651,0.11622 c 0.016148,0.004 0.031539,0.003 0.046503,-0.007 0.014906,-0.01 0.024645,-0.0211 0.028997,-0.0374 l 0.018273,-0.0681 c 0.00431,-0.0162 0.00206,-0.0317 -0.00652,-0.0465 -0.00861,-0.0148 -0.020904,-0.0245 -0.037054,-0.0289 L 6.75633,293.8197 6.8719347,293.38825 c 0.00431,-0.0162 0.00212,-0.0319 -0.00646,-0.0467 -0.00857,-0.0149 -0.020964,-0.0243 -0.037114,-0.0287 z m -1.4049626,-0.17625 0.1830086,1.70302 -1.1974449,-0.32086 z"
       style="font-style:normal;font-variant:normal;font-weight:normal;font-stretch:normal;font-size:10.5834px;line-height:1.25;font-family:Contemporary;-inkscape-font-specification:Contemporary;text-align:center;letter-spacing:-0.933983px;word-spacing:0px;text-anchor:middle;fill:#ffffff;fill-opacity:1;stroke-width:0.111884"
       id="path852" />
  </g>
</svg>
